<svg width="22" height="27" viewBox="0 0 22 27" fill="none" xmlns="http://www.w3.org/2000/svg">
<path d="M1 23.4561V2.40351C1 2.03128 1.15051 1.67429 1.41842 1.41108C1.68633 1.14787 2.04969 1 2.42857 1H19.5714C19.9503 1 20.3137 1.14787 20.5816 1.41108C20.8495 1.67429 21 2.03128 21 2.40351V20.6491H3.85714C3.09938 20.6491 2.37266 20.9449 1.83684 21.4713C1.30102 21.9977 1 22.7117 1 23.4561ZM1 23.4561C1 24.2006 1.30102 24.9146 1.83684 25.441C2.37266 25.9674 3.09938 26.2632 3.85714 26.2632H21M6.71429 1V20.6491M16.7143 20.6491V26.2632" stroke="white" stroke-width="2" stroke-linecap="round" stroke-linejoin="round"/>
</svg>
