<svg xmlns="http://www.w3.org/2000/svg" version="1.1" xmlns:xlink="http://www.w3.org/1999/xlink" xmlns:svgjs="http://svgjs.dev/svgjs" width="1000" height="1000"><style>
    #light-icon {
      display: inline;
    }
    #dark-icon {
      display: none;
    }

    @media (prefers-color-scheme: dark) {
      #light-icon {
        display: none;
      }
      #dark-icon {
        display: inline;
      }
    }
  </style><g id="light-icon"><svg xmlns="http://www.w3.org/2000/svg" version="1.1" xmlns:xlink="http://www.w3.org/1999/xlink" xmlns:svgjs="http://svgjs.dev/svgjs" width="1000" height="1000"><g clip-path="url(#SvgjsClipPath1581)"><rect width="1000" height="1000" fill="#3182ce"></rect><g transform="matrix(1.3432835820895523,0,0,1.3432835820895523,49.99999999999994,49.99999999999994)"><svg xmlns="http://www.w3.org/2000/svg" version="1.1" xmlns:xlink="http://www.w3.org/1999/xlink" xmlns:svgjs="http://svgjs.dev/svgjs" width="670" height="670"><svg width="670" height="670" viewBox="0 0 670 670" fill="none" xmlns="http://www.w3.org/2000/svg">
<g filter="url(#filter0_d_769_4163)">
<path d="M521.971 75.0032C508.786 74.9959 145.775 75.0035 128.505 75.0032C75.0071 75.0023 75.0071 75.0032 75.0006 138.139L75.0006 138.162C74.9987 156.68 75.0021 256.049 75.0007 378.157C74.9993 500.265 211.035 587 331.803 587C462.684 587 587 498.581 587 378.157V138.162C587 75.0048 587 75.0392 521.971 75.0032Z" fill="white" stroke="white" stroke-width="20"></path>
<path d="M433.595 330.457L477.165 289.547C478.186 288.589 479.096 287.521 479.88 286.361C489.18 275.252 493.836 260.982 492.876 246.526C491.917 232.069 485.416 218.54 474.729 208.758C464.042 198.976 449.993 193.694 435.508 194.014C421.023 194.333 407.22 200.23 396.975 210.474C396.263 211.186 395.609 211.953 395.02 212.769L356.584 253.42L230.657 207.628C227.304 206.409 223.672 206.171 220.188 206.944C216.705 207.717 213.514 209.468 210.991 211.991L173.491 249.491C171.53 251.452 170.028 253.825 169.094 256.437C168.16 259.049 167.818 261.836 168.091 264.597C168.365 267.357 169.247 270.023 170.675 272.401C172.103 274.779 174.041 276.811 176.349 278.35L269.818 340.664L253.983 356.499H224.25C219.277 356.5 214.508 358.475 210.991 361.991L173.491 399.491C171.237 401.746 169.594 404.539 168.719 407.606C167.845 410.672 167.766 413.911 168.492 417.016C169.218 420.122 170.723 422.991 172.867 425.352C175.01 427.713 177.72 429.489 180.741 430.511L237.291 449.644L256.493 506.271C257.517 509.29 259.293 511.998 261.655 514.139C264.016 516.281 266.885 517.785 269.989 518.509C273.094 519.234 276.331 519.155 279.397 518.28C282.462 517.404 285.254 515.762 287.508 513.508L325.008 476.008C328.524 472.492 330.499 467.722 330.5 462.75V433.547L346.218 419.267L408.768 510.827C410.323 513.103 412.36 515.008 414.735 516.406C417.11 517.805 419.764 518.663 422.508 518.919C425.252 519.175 428.019 518.823 430.612 517.888C433.204 516.952 435.559 515.457 437.508 513.508L475.008 476.008C477.531 473.485 479.282 470.294 480.054 466.811C480.827 463.327 480.59 459.696 479.37 456.342L433.595 330.457ZM426.978 471.005L365.032 380.329C363.52 378.116 361.551 376.253 359.257 374.865C356.964 373.477 354.4 372.597 351.738 372.285C349.076 371.972 346.378 372.233 343.825 373.052C341.273 373.87 338.926 375.226 336.942 377.029L299.141 411.372C297.207 413.129 295.661 415.272 294.604 417.662C293.546 420.051 293 422.636 293 425.25V454.983L282.32 465.663L269.831 428.831C268.906 426.103 267.365 423.625 265.328 421.589C263.29 419.553 260.811 418.014 258.083 417.091L221.352 404.664L232.016 393.999H261.75C266.722 393.999 271.491 392.024 275.008 388.508L312.508 351.008C314.469 349.046 315.971 346.674 316.905 344.062C317.839 341.449 318.181 338.663 317.908 335.902C317.635 333.141 316.752 330.476 315.324 328.098C313.896 325.719 311.958 323.688 309.65 322.149L216.181 259.835L229.064 246.952L355.342 292.87C358.78 294.121 362.508 294.338 366.067 293.496C369.626 292.654 372.862 290.789 375.374 288.131L424.922 235.726C424.956 235.689 424.991 235.653 425.025 235.616C428.766 232.618 433.514 231.167 438.293 231.562C443.071 231.957 447.517 234.167 450.716 237.739C453.915 241.31 455.624 245.971 455.492 250.764C455.361 255.557 453.398 260.117 450.008 263.508C449.732 263.784 449.467 264.065 449.212 264.353L398.915 311.58C396.241 314.091 394.362 317.332 393.511 320.901C392.66 324.469 392.875 328.209 394.129 331.656L440.048 457.936L426.978 471.005Z" fill="#3182CE"></path>
<rect x="95.2773" y="109.218" width="135.604" height="30.4158" rx="15.2079" fill="#3182CE"></rect>
<rect x="420.98" y="109.218" width="135.604" height="30.4158" rx="15.2079" fill="#3182CE"></rect>
<rect x="257.494" y="109.218" width="136.871" height="30.4158" rx="15.2079" fill="#3182CE"></rect>
</g>
<defs>
<filter id="filter0_d_769_4163" x="0" y="0" width="670" height="670" filterUnits="userSpaceOnUse" color-interpolation-filters="sRGB">
<feFlood flood-opacity="0" result="BackgroundImageFix"></feFlood>
<feColorMatrix in="SourceAlpha" type="matrix" values="0 0 0 0 0 0 0 0 0 0 0 0 0 0 0 0 0 0 127 0" result="hardAlpha"></feColorMatrix>
<feOffset dx="4" dy="4"></feOffset>
<feGaussianBlur stdDeviation="34.5"></feGaussianBlur>
<feComposite in2="hardAlpha" operator="out"></feComposite>
<feColorMatrix type="matrix" values="0 0 0 0 0 0 0 0 0 0 0 0 0 0 0 0 0 0 0.2 0"></feColorMatrix>
<feBlend mode="normal" in2="BackgroundImageFix" result="effect1_dropShadow_769_4163"></feBlend>
<feBlend mode="normal" in="SourceGraphic" in2="effect1_dropShadow_769_4163" result="shape"></feBlend>
</filter>
<clipPath id="SvgjsClipPath1581"><rect width="1000" height="1000" x="0" y="0" rx="350" ry="350"></rect></clipPath></defs>
</svg></svg></g></g></svg></g><g id="dark-icon"><svg xmlns="http://www.w3.org/2000/svg" version="1.1" xmlns:xlink="http://www.w3.org/1999/xlink" xmlns:svgjs="http://svgjs.dev/svgjs" width="1000" height="1000"><g><g transform="matrix(1.492537313432836,0,0,1.492537313432836,-5.684341886080802e-14,-5.684341886080802e-14)"><svg xmlns="http://www.w3.org/2000/svg" version="1.1" xmlns:xlink="http://www.w3.org/1999/xlink" xmlns:svgjs="http://svgjs.dev/svgjs" width="670" height="670"><svg width="670" height="670" viewBox="0 0 670 670" fill="none" xmlns="http://www.w3.org/2000/svg">
<g filter="url(#filter0_d_769_4163)">
<path d="M521.971 75.0032C508.786 74.9959 145.775 75.0035 128.505 75.0032C75.0071 75.0023 75.0071 75.0032 75.0006 138.139L75.0006 138.162C74.9987 156.68 75.0021 256.049 75.0007 378.157C74.9993 500.265 211.035 587 331.803 587C462.684 587 587 498.581 587 378.157V138.162C587 75.0048 587 75.0392 521.971 75.0032Z" fill="white" stroke="white" stroke-width="20"></path>
<path d="M433.595 330.457L477.165 289.547C478.186 288.589 479.096 287.521 479.88 286.361C489.18 275.252 493.836 260.982 492.876 246.526C491.917 232.069 485.416 218.54 474.729 208.758C464.042 198.976 449.993 193.694 435.508 194.014C421.023 194.333 407.22 200.23 396.975 210.474C396.263 211.186 395.609 211.953 395.02 212.769L356.584 253.42L230.657 207.628C227.304 206.409 223.672 206.171 220.188 206.944C216.705 207.717 213.514 209.468 210.991 211.991L173.491 249.491C171.53 251.452 170.028 253.825 169.094 256.437C168.16 259.049 167.818 261.836 168.091 264.597C168.365 267.357 169.247 270.023 170.675 272.401C172.103 274.779 174.041 276.811 176.349 278.35L269.818 340.664L253.983 356.499H224.25C219.277 356.5 214.508 358.475 210.991 361.991L173.491 399.491C171.237 401.746 169.594 404.539 168.719 407.606C167.845 410.672 167.766 413.911 168.492 417.016C169.218 420.122 170.723 422.991 172.867 425.352C175.01 427.713 177.72 429.489 180.741 430.511L237.291 449.644L256.493 506.271C257.517 509.29 259.293 511.998 261.655 514.139C264.016 516.281 266.885 517.785 269.989 518.509C273.094 519.234 276.331 519.155 279.397 518.28C282.462 517.404 285.254 515.762 287.508 513.508L325.008 476.008C328.524 472.492 330.499 467.722 330.5 462.75V433.547L346.218 419.267L408.768 510.827C410.323 513.103 412.36 515.008 414.735 516.406C417.11 517.805 419.764 518.663 422.508 518.919C425.252 519.175 428.019 518.823 430.612 517.888C433.204 516.952 435.559 515.457 437.508 513.508L475.008 476.008C477.531 473.485 479.282 470.294 480.054 466.811C480.827 463.327 480.59 459.696 479.37 456.342L433.595 330.457ZM426.978 471.005L365.032 380.329C363.52 378.116 361.551 376.253 359.257 374.865C356.964 373.477 354.4 372.597 351.738 372.285C349.076 371.972 346.378 372.233 343.825 373.052C341.273 373.87 338.926 375.226 336.942 377.029L299.141 411.372C297.207 413.129 295.661 415.272 294.604 417.662C293.546 420.051 293 422.636 293 425.25V454.983L282.32 465.663L269.831 428.831C268.906 426.103 267.365 423.625 265.328 421.589C263.29 419.553 260.811 418.014 258.083 417.091L221.352 404.664L232.016 393.999H261.75C266.722 393.999 271.491 392.024 275.008 388.508L312.508 351.008C314.469 349.046 315.971 346.674 316.905 344.062C317.839 341.449 318.181 338.663 317.908 335.902C317.635 333.141 316.752 330.476 315.324 328.098C313.896 325.719 311.958 323.688 309.65 322.149L216.181 259.835L229.064 246.952L355.342 292.87C358.78 294.121 362.508 294.338 366.067 293.496C369.626 292.654 372.862 290.789 375.374 288.131L424.922 235.726C424.956 235.689 424.991 235.653 425.025 235.616C428.766 232.618 433.514 231.167 438.293 231.562C443.071 231.957 447.517 234.167 450.716 237.739C453.915 241.31 455.624 245.971 455.492 250.764C455.361 255.557 453.398 260.117 450.008 263.508C449.732 263.784 449.467 264.065 449.212 264.353L398.915 311.58C396.241 314.091 394.362 317.332 393.511 320.901C392.66 324.469 392.875 328.209 394.129 331.656L440.048 457.936L426.978 471.005Z" fill="#3182CE"></path>
<rect x="95.2773" y="109.218" width="135.604" height="30.4158" rx="15.2079" fill="#3182CE"></rect>
<rect x="420.98" y="109.218" width="135.604" height="30.4158" rx="15.2079" fill="#3182CE"></rect>
<rect x="257.494" y="109.218" width="136.871" height="30.4158" rx="15.2079" fill="#3182CE"></rect>
</g>
<defs>
<filter id="filter0_d_769_4163" x="0" y="0" width="670" height="670" filterUnits="userSpaceOnUse" color-interpolation-filters="sRGB">
<feFlood flood-opacity="0" result="BackgroundImageFix"></feFlood>
<feColorMatrix in="SourceAlpha" type="matrix" values="0 0 0 0 0 0 0 0 0 0 0 0 0 0 0 0 0 0 127 0" result="hardAlpha"></feColorMatrix>
<feOffset dx="4" dy="4"></feOffset>
<feGaussianBlur stdDeviation="34.5"></feGaussianBlur>
<feComposite in2="hardAlpha" operator="out"></feComposite>
<feColorMatrix type="matrix" values="0 0 0 0 0 0 0 0 0 0 0 0 0 0 0 0 0 0 0.2 0"></feColorMatrix>
<feBlend mode="normal" in2="BackgroundImageFix" result="effect1_dropShadow_769_4163"></feBlend>
<feBlend mode="normal" in="SourceGraphic" in2="effect1_dropShadow_769_4163" result="shape"></feBlend>
</filter>
</defs>
</svg></svg></g></g></svg></g></svg>