<svg width="712" height="682" viewBox="0 0 712 682" fill="none" xmlns="http://www.w3.org/2000/svg">
<rect width="712" height="682" rx="100" fill="#3182CE"/>
<g filter="url(#filter0_d_788_4034)">
<path d="M546.971 85.0032C533.786 84.9959 170.775 85.0035 153.505 85.0032C100.007 85.0023 100.007 85.0032 100.001 148.139L100.001 148.162C99.9987 166.68 100.002 266.049 100.001 388.157C99.9993 510.265 236.035 597 356.803 597C487.684 597 612 508.581 612 388.157V148.162C612 85.0048 612 85.0392 546.971 85.0032Z" fill="white" stroke="white" stroke-width="20"/>
<path d="M458.595 340.457L502.165 299.547C503.186 298.589 504.096 297.521 504.88 296.361C514.18 285.252 518.836 270.982 517.876 256.526C516.917 242.069 510.416 228.54 499.729 218.758C489.042 208.976 474.993 203.694 460.508 204.014C446.023 204.333 432.22 210.23 421.975 220.474C421.263 221.186 420.609 221.953 420.02 222.769L381.584 263.42L255.657 217.628C252.304 216.409 248.672 216.171 245.188 216.944C241.705 217.717 238.514 219.468 235.991 221.991L198.491 259.491C196.53 261.452 195.028 263.825 194.094 266.437C193.16 269.049 192.818 271.836 193.091 274.597C193.365 277.357 194.247 280.023 195.675 282.401C197.103 284.779 199.041 286.811 201.349 288.35L294.818 350.664L278.983 366.499H249.25C244.277 366.5 239.508 368.475 235.991 371.991L198.491 409.491C196.237 411.746 194.594 414.539 193.719 417.606C192.845 420.672 192.766 423.911 193.492 427.016C194.218 430.122 195.723 432.991 197.867 435.352C200.01 437.713 202.72 439.489 205.741 440.511L262.291 459.644L281.493 516.271C282.517 519.29 284.293 521.998 286.655 524.139C289.016 526.281 291.885 527.785 294.989 528.509C298.094 529.234 301.331 529.155 304.397 528.28C307.462 527.404 310.254 525.762 312.508 523.508L350.008 486.008C353.524 482.492 355.499 477.722 355.5 472.75V443.547L371.218 429.267L433.768 520.827C435.323 523.103 437.36 525.008 439.735 526.406C442.11 527.805 444.764 528.663 447.508 528.919C450.252 529.175 453.019 528.823 455.612 527.888C458.204 526.952 460.559 525.457 462.508 523.508L500.008 486.008C502.531 483.485 504.282 480.294 505.054 476.811C505.827 473.327 505.59 469.696 504.37 466.342L458.595 340.457ZM451.978 481.005L390.032 390.329C388.52 388.116 386.551 386.253 384.257 384.865C381.964 383.477 379.4 382.597 376.738 382.285C374.076 381.972 371.378 382.233 368.825 383.052C366.273 383.87 363.926 385.226 361.942 387.029L324.141 421.372C322.207 423.129 320.661 425.272 319.604 427.662C318.546 430.051 318 432.636 318 435.25V464.983L307.32 475.663L294.831 438.831C293.906 436.103 292.365 433.625 290.328 431.589C288.29 429.553 285.811 428.014 283.083 427.091L246.352 414.664L257.016 403.999H286.75C291.722 403.999 296.491 402.024 300.008 398.508L337.508 361.008C339.469 359.046 340.971 356.674 341.905 354.062C342.839 351.449 343.181 348.663 342.908 345.902C342.635 343.141 341.752 340.476 340.324 338.098C338.896 335.719 336.958 333.688 334.65 332.149L241.181 269.835L254.064 256.952L380.342 302.87C383.78 304.121 387.508 304.338 391.067 303.496C394.626 302.654 397.862 300.789 400.374 298.131L449.922 245.726C449.956 245.689 449.991 245.653 450.025 245.616C453.766 242.618 458.514 241.167 463.293 241.562C468.071 241.957 472.517 244.167 475.716 247.739C478.915 251.31 480.624 255.971 480.492 260.764C480.361 265.557 478.398 270.117 475.008 273.508C474.732 273.784 474.467 274.065 474.212 274.353L423.915 321.58C421.241 324.091 419.362 327.332 418.511 330.901C417.66 334.469 417.875 338.209 419.129 341.656L465.048 467.936L451.978 481.005Z" fill="#3182CE"/>
<rect x="120.277" y="119.218" width="135.604" height="30.4158" rx="15.2079" fill="#3182CE"/>
<rect x="445.98" y="119.218" width="135.604" height="30.4158" rx="15.2079" fill="#3182CE"/>
<rect x="282.494" y="119.218" width="136.871" height="30.4158" rx="15.2079" fill="#3182CE"/>
</g>
<defs>
<filter id="filter0_d_788_4034" x="25" y="10" width="670" height="670" filterUnits="userSpaceOnUse" color-interpolation-filters="sRGB">
<feFlood flood-opacity="0" result="BackgroundImageFix"/>
<feColorMatrix in="SourceAlpha" type="matrix" values="0 0 0 0 0 0 0 0 0 0 0 0 0 0 0 0 0 0 127 0" result="hardAlpha"/>
<feOffset dx="4" dy="4"/>
<feGaussianBlur stdDeviation="34.5"/>
<feComposite in2="hardAlpha" operator="out"/>
<feColorMatrix type="matrix" values="0 0 0 0 0 0 0 0 0 0 0 0 0 0 0 0 0 0 0.2 0"/>
<feBlend mode="normal" in2="BackgroundImageFix" result="effect1_dropShadow_788_4034"/>
<feBlend mode="normal" in="SourceGraphic" in2="effect1_dropShadow_788_4034" result="shape"/>
</filter>
</defs>
</svg>
